<?xml version="1.0" encoding="UTF-8" standalone="no"?>
<!-- Created with Inkscape (http://www.inkscape.org/) -->

<svg
   width="210mm"
   height="297mm"
   viewBox="0 0 210 297"
   version="1.1"
   id="svg1413"
   inkscape:version="1.1.1 (3bf5ae0d25, 2021-09-20)"
   sodipodi:docname="Weihnachtsbaum2PartsBetter.svg"
   xmlns:inkscape="http://www.inkscape.org/namespaces/inkscape"
   xmlns:sodipodi="http://sodipodi.sourceforge.net/DTD/sodipodi-0.dtd"
   xmlns="http://www.w3.org/2000/svg"
   xmlns:svg="http://www.w3.org/2000/svg"
   xmlns:shaper="http://www.shapertools.com/namespaces/shaper">
  <sodipodi:namedview
     id="namedview1415"
     pagecolor="#ffffff"
     bordercolor="#666666"
     borderopacity="1.0"
     inkscape:pageshadow="2"
     inkscape:pageopacity="0.0"
     inkscape:pagecheckerboard="0"
     inkscape:document-units="mm"
     showgrid="false"
     inkscape:zoom="1.4142136"
     inkscape:cx="310.06632"
     inkscape:cy="271.17544"
     inkscape:window-width="1920"
     inkscape:window-height="1051"
     inkscape:window-x="-9"
     inkscape:window-y="-9"
     inkscape:window-maximized="1"
     inkscape:current-layer="layer1"
     inkscape:showpageshadow="2"
     inkscape:deskcolor="#d1d1d1" />
  <defs
     id="defs1410">
    <inkscape:path-effect
       effect="bspline"
       id="path-effect837"
       is_visible="true"
       lpeversion="1"
       weight="33.333333"
       steps="2"
       helper_size="0"
       apply_no_weight="true"
       apply_with_weight="true"
       only_selected="false" />
    <inkscape:path-effect
       effect="bspline"
       id="path-effect841"
       is_visible="true"
       lpeversion="1"
       weight="33.333333"
       steps="2"
       helper_size="0"
       apply_no_weight="true"
       apply_with_weight="true"
       only_selected="false" />
    <inkscape:path-effect
       effect="bspline"
       id="path-effect845"
       is_visible="true"
       lpeversion="1"
       weight="33.333333"
       steps="2"
       helper_size="0"
       apply_no_weight="true"
       apply_with_weight="true"
       only_selected="false" />
    <inkscape:path-effect
       effect="bspline"
       id="path-effect112"
       is_visible="true"
       lpeversion="1"
       weight="33.333333"
       steps="2"
       helper_size="0"
       apply_no_weight="true"
       apply_with_weight="true"
       only_selected="false" />
    <inkscape:path-effect
       effect="bspline"
       id="path-effect651"
       is_visible="true"
       lpeversion="1"
       weight="33.333333"
       steps="2"
       helper_size="0"
       apply_no_weight="true"
       apply_with_weight="true"
       only_selected="false" />
    <inkscape:path-effect
       effect="bspline"
       id="path-effect1328"
       is_visible="true"
       lpeversion="1"
       weight="33.333333"
       steps="2"
       helper_size="0"
       apply_no_weight="true"
       apply_with_weight="true"
       only_selected="false" />
    <inkscape:path-effect
       effect="bspline"
       id="path-effect1000"
       is_visible="true"
       lpeversion="1"
       weight="33.333333"
       steps="2"
       helper_size="0"
       apply_no_weight="true"
       apply_with_weight="true"
       only_selected="false" />
    <inkscape:path-effect
       effect="bspline"
       id="path-effect1284"
       is_visible="true"
       lpeversion="1"
       weight="33.333333"
       steps="2"
       helper_size="0"
       apply_no_weight="true"
       apply_with_weight="true"
       only_selected="false" />
    <inkscape:path-effect
       effect="bspline"
       id="path-effect1492"
       is_visible="true"
       lpeversion="1"
       weight="33.333333"
       steps="2"
       helper_size="0"
       apply_no_weight="true"
       apply_with_weight="true"
       only_selected="false" />
    <inkscape:path-effect
       effect="bspline"
       id="path-effect1548"
       is_visible="true"
       lpeversion="1"
       weight="33.333333"
       steps="2"
       helper_size="0"
       apply_no_weight="true"
       apply_with_weight="true"
       only_selected="false" />
  </defs>
  <g
     inkscape:label="Ebene 1"
     inkscape:groupmode="layer"
     id="layer1">
    <path
       style="fill:none;stroke:#ff0000;stroke-width:0.001;stroke-linecap:butt;stroke-linejoin:miter;stroke-miterlimit:4;stroke-dasharray:none;stroke-opacity:1"
       d="m 128.51241,115.59877 -6.34182,-0.0117 -0.10401,-16.268071 c 0,0 -9.43025,-0.813343 -14.14526,-1.220095 -2.96118,-0.440455 -5.56287,-0.817292 -7.29034,-1.560899 -1.502283,-1.378208 0.10065,-3.251736 0.10065,-3.251736 l 7.68477,-12.811097 c 0,0 -3.0653,-0.146818 -4.55878,-0.372758 -2.00592,-1.909159 0.41671,-3.682775 0.7815,-4.47372 l 9.19573,-12.607736 c 0,0 -3.35187,-0.508262 -4.97558,-0.711713 -1.19838,-1.152299 -0.26053,-2.541791 0.10409,-3.050264"
       id="path498-1"
       sodipodi:nodetypes="cccccccccccc" />
    <path
       style="fill:none;stroke:#ff0000;stroke-width:0.001;stroke-linecap:butt;stroke-linejoin:miter;stroke-miterlimit:4;stroke-dasharray:none;stroke-opacity:1"
       d="m 108.96315,59.25465 c 0,0 15.3294,-24.317651 15.3294,-24.317651 0.41186,-0.423449 0.82364,-0.84682 1.34256,-0.547768 0.51891,0.299052 1.14482,1.320705 1.77067,2.342272"
       id="path998-3"
       inkscape:path-effect="#path-effect1000"
       inkscape:original-d="m 108.96315,59.25465 15.3294,-24.317651 c 0,0 0.82369,-0.846774 1.23558,-1.270348 0.62582,1.021676 1.25171,2.043338 1.87765,3.064852"
       sodipodi:nodetypes="cccc" />
    <path
       style="fill:none;stroke:#ff0000;stroke-width:0.001;stroke-linecap:butt;stroke-linejoin:miter;stroke-miterlimit:4;stroke-dasharray:none;stroke-opacity:1"
       d="m 127.40578,36.731503 c 0,0 14.60657,23.488373 14.60657,23.488373 0.18402,0.478796 0.36808,0.957667 0.23178,1.323537 -0.1363,0.36587 -0.59267,0.618769 -1.04901,0.871652"
       id="path1282-1"
       inkscape:path-effect="#path-effect1284"
       inkscape:original-d="m 127.40578,36.731503 14.60657,23.488373 c 0,0 0.36799,0.9577 0.55207,1.436389 -0.45654,0.253101 -0.91294,0.50595 -1.3693,0.7588"
       sodipodi:nodetypes="cccc" />
    <path
       style="fill:none;stroke:#ff0000;stroke-width:0.001;stroke-linecap:butt;stroke-linejoin:miter;stroke-miterlimit:4;stroke-dasharray:none;stroke-opacity:1"
       d="m 141.1951,62.415075 c 0,0 -4.37883,0.762066 -4.37883,0.762066 0,0 10.49924,14.613652 10.49924,14.613652 0.12479,0.54801 0.24961,1.096129 0.0208,1.491881 -0.22887,0.395752 -0.81128,0.639317 -1.39364,0.882864"
       id="path1490-2"
       inkscape:path-effect="#path-effect1492"
       inkscape:original-d="m 141.1951,62.415075 -4.37883,0.762066 10.49924,14.613652 c 0,0 0.24953,1.096148 0.37438,1.644031 -0.58248,0.243645 -1.1649,0.48718 -1.74727,0.730714"
       sodipodi:nodetypes="ccccc" />
    <path
       style="fill:none;stroke:#ff0000;stroke-width:0.001;stroke-linecap:butt;stroke-linejoin:miter;stroke-miterlimit:4;stroke-dasharray:none;stroke-opacity:1"
       d="m 145.94266,80.165468 c 0,0 -3.47895,0.588559 -3.47895,0.588559 0,0 7.50393,12.969612 7.50393,12.969612 0.17161,0.791565 0.34324,1.583189 -0.11704,2.351096 -0.46029,0.767907 -1.55228,1.5121 -5.22111,2.009354 -3.66882,0.497254 -9.91417,0.74758 -16.15954,0.997907"
       id="path1546-9"
       inkscape:path-effect="#path-effect1548"
       inkscape:original-d="m 145.94266,80.165468 -3.47895,0.588559 7.50393,12.969612 c 0,0 0.34311,1.583217 0.51484,2.374695 -1.09213,0.74436 -2.18414,1.48853 -3.27612,2.232669 -6.24569,0.250408 -12.49104,0.500706 -18.73641,0.750993"
       sodipodi:nodetypes="cccccc" />
    <path
       style="fill:none;stroke:#ff0000;stroke-width:0.001;stroke-linecap:butt;stroke-linejoin:miter;stroke-miterlimit:4;stroke-dasharray:none;stroke-opacity:1"
       d="m 128.51241,115.59877 -0.0428,-16.516754"
       id="path1886-9"
       sodipodi:nodetypes="cc" />
    <path
       style="fill:none;stroke:#ff0000;stroke-width:0.000978256;stroke-linecap:butt;stroke-linejoin:miter;stroke-miterlimit:4;stroke-dasharray:none;stroke-opacity:1"
       d="m 123.77543,65.195316 h 2.89902 V 50.196295 h -2.89902 z"
       id="path6131" />
    <path
       style="fill:none;stroke:#ff0000;stroke-width:0.000969785;stroke-linecap:butt;stroke-linejoin:miter;stroke-miterlimit:4;stroke-dasharray:none;stroke-opacity:1"
       d="m 123.77542,80.245273 h 2.84903 v 14.999031 h -2.84903 z"
       id="path6133" />
    <ellipse
       style="fill:none;fill-rule:evenodd;stroke:#ff0000;stroke-width:0.001;stroke-miterlimit:4;stroke-dasharray:none;stroke-opacity:1"
       id="path3188"
       cx="125.29172"
       cy="37.825974"
       rx="1.3009971"
       ry="1.3404213" />
    <rect
       style="fill:none;stroke:#ff0000;stroke-width:0.001;stroke-miterlimit:4;stroke-dasharray:none;stroke-opacity:1"
       id="rect1022"
       width="109.69949"
       height="93.374702"
       x="42.867535"
       y="31.90057" />
    <path
       style="fill:none;stroke:#ff0000;stroke-width:0.001;stroke-linecap:butt;stroke-linejoin:miter;stroke-miterlimit:4;stroke-dasharray:none;stroke-opacity:1"
       d="m 75.794693,39.705059 c 0,0 14.702067,23.641923 14.702067,23.641923 0.185227,0.481928 0.370484,0.963936 0.233299,1.332195 -0.137184,0.36826 -0.596538,0.622813 -1.055867,0.877353"
       id="path1282-1-8"
       sodipodi:nodetypes="cccc"
       inkscape:original-d="M 75.794693,39.705059 90.49676,63.346982 c 0,0 0.370397,0.963969 0.55568,1.445784 -0.459516,0.254759 -0.918902,0.509256 -1.378248,0.763764"
       inkscape:path-effect="#path-effect837" />
    <path
       style="fill:none;stroke:#ff0000;stroke-width:0.001;stroke-linecap:butt;stroke-linejoin:miter;stroke-miterlimit:4;stroke-dasharray:none;stroke-opacity:1"
       d="m 89.674172,65.55654 c 0,0 -4.40746,0.76704 -4.40746,0.76704 0,0 10.567886,14.709193 10.567886,14.709193 0.125606,0.551594 0.251236,1.103293 0.02088,1.501635 -0.230362,0.398341 -0.816579,0.643498 -1.40275,0.888635"
       id="path1490-4"
       sodipodi:nodetypes="ccccc"
       inkscape:original-d="m 89.674172,65.55654 -4.40746,0.76704 10.567886,14.709193 c 0,0 0.251152,1.103312 0.376818,1.654783 -0.586288,0.245233 -1.172516,0.490365 -1.758693,0.735487"
       inkscape:path-effect="#path-effect841" />
    <path
       style="fill:none;stroke:#ff0000;stroke-width:0.001;stroke-linecap:butt;stroke-linejoin:miter;stroke-miterlimit:4;stroke-dasharray:none;stroke-opacity:1"
       d="m 94.452763,83.422973 c 0,0 -3.501691,0.592408 -3.501691,0.592408 0,0 7.552982,13.054401 7.552982,13.054401 0.172736,0.79674 0.345484,1.593539 -0.117803,2.366465 -0.463286,0.772923 -1.562432,1.521993 -5.255241,2.022493 -3.692809,0.50051 -9.978981,0.75247 -16.26518,1.00443"
       id="path1546-7"
       sodipodi:nodetypes="cccccc"
       inkscape:original-d="m 94.452763,83.422973 -3.501691,0.592408 7.552982,13.054401 c 0,0 0.345356,1.593567 0.518207,2.39022 -1.099257,0.749228 -2.198421,1.498268 -3.297533,2.247268 -6.286524,0.25205 -12.572697,0.50398 -18.858898,0.7559"
       inkscape:path-effect="#path-effect845" />
    <path
       style="fill:none;stroke:#ff0000;stroke-width:0.001;stroke-linecap:butt;stroke-linejoin:miter;stroke-miterlimit:4;stroke-dasharray:none;stroke-opacity:1"
       d="m 76.946107,118.8216 -0.04281,-16.51676"
       id="path1886-1"
       sodipodi:nodetypes="cc" />
    <path
       style="fill:none;stroke:#ff0000;stroke-width:0.001;stroke-linecap:butt;stroke-linejoin:miter;stroke-miterlimit:4;stroke-dasharray:none;stroke-opacity:1"
       d="m 73.771986,83.4597 h -3.01421 v 15.171574 h 3.01421"
       id="path5032-8" />
    <path
       style="fill:none;stroke:#ff0000;stroke-width:0.001;stroke-linecap:butt;stroke-linejoin:miter;stroke-miterlimit:4;stroke-dasharray:none;stroke-opacity:1"
       d="m 73.775211,119.01685 -0.003,-20.385918"
       id="path6601-4" />
    <path
       style="fill:none;stroke:#ff0000;stroke-width:0.001;stroke-linecap:butt;stroke-linejoin:miter;stroke-miterlimit:4;stroke-dasharray:none;stroke-opacity:1"
       d="m 73.633789,37.241174 0.01598,15.711699"
       id="path6716-8" />
    <path
       style="fill:none;stroke:#ff0000;stroke-width:0.001;stroke-linecap:butt;stroke-linejoin:miter;stroke-miterlimit:4;stroke-dasharray:none;stroke-opacity:1"
       d="M 73.649776,68.124115 73.771986,83.4597"
       id="path6911-0" />
    <path
       style="fill:none;stroke:#ff0000;stroke-width:0.001;stroke-linecap:butt;stroke-linejoin:miter;stroke-miterlimit:4;stroke-dasharray:none;stroke-opacity:1"
       d="m 70.760982,118.78591 -3.228825,0.059 -0.104002,-16.26807 c 0,0 -9.430259,-0.81335 -14.145273,-1.2201 -2.961174,-0.44045 -5.562864,-0.81729 -7.290337,-1.560898 -1.502287,-1.378209 0.100655,-3.251736 0.100655,-3.251736 l 7.68477,-12.811097 c 0,0 -3.065307,-0.146819 -4.558791,-0.372759 -2.005916,-1.909159 0.41672,-3.682774 0.78151,-4.47372 l 9.195728,-12.607736 c 0,0 -3.351869,-0.508262 -4.975581,-0.711713 -1.198381,-1.152299 -0.260527,-2.541791 0.104092,-3.050264"
       id="path498-3"
       sodipodi:nodetypes="cccccccccccc" />
    <path
       style="fill:none;stroke:#ff0000;stroke-width:0.001;stroke-linecap:butt;stroke-linejoin:miter;stroke-miterlimit:4;stroke-dasharray:none;stroke-opacity:1"
       d="m 54.324717,62.512396 c 5.080235,-8.154135 10.160469,-16.308269 12.940551,-20.501021 2.780082,-4.192752 3.355216,-4.470013 3.355216,-4.470013"
       id="path998-7"
       sodipodi:nodetypes="cccc"
       inkscape:original-d="m 54.324717,62.512396 c 5.080236,-8.154134 10.160472,-16.308267 15.240708,-24.462411 0.457436,-0.278011 1.67095,-2.204645 1.055059,-0.508623"
       inkscape:path-effect="#path-effect112" />
    <path
       style="fill:none;stroke:#ff0000;stroke-width:0.001;stroke-linecap:butt;stroke-linejoin:miter;stroke-miterlimit:4;stroke-dasharray:none;stroke-opacity:1"
       d="m 70.636418,68.223866 h 3.014213 V 53.150878 h -3.014213"
       id="path4917-9" />
    <path
       style="fill:none;stroke:#ff0000;stroke-width:0.001;stroke-linecap:butt;stroke-linejoin:miter;stroke-miterlimit:4;stroke-dasharray:none;stroke-opacity:1"
       d="m 70.760982,118.78591 -0.003,-20.253513"
       id="path6601-7" />
    <path
       style="fill:none;stroke:#ff0000;stroke-width:0.001;stroke-linecap:butt;stroke-linejoin:miter;stroke-miterlimit:4;stroke-dasharray:none;stroke-opacity:1"
       d="m 70.620484,37.541362 0.01588,15.609657"
       id="path6716-0" />
    <path
       style="fill:none;stroke:#ff0000;stroke-width:0.001;stroke-linecap:butt;stroke-linejoin:miter;stroke-miterlimit:4;stroke-dasharray:none;stroke-opacity:1"
       d="M 70.63636,68.223726 70.757776,83.4597"
       id="path6911-3" />
    <g
       id="g654"
       transform="matrix(1.0048471,0,0,1.0048471,-50.708459,-49.343718)"
       style="fill:none;stroke:#ff0000;stroke-width:0.00099518;stroke-miterlimit:4;stroke-dasharray:none;stroke-opacity:1">
      <path
         style="fill:none;stroke:#ff0000;stroke-width:0.00099518;stroke-linecap:butt;stroke-linejoin:miter;stroke-miterlimit:4;stroke-dasharray:none;stroke-opacity:1"
         d="m 104.52652,111.31655 c 5.05573,-8.1148 10.11146,-16.229606 12.87813,-20.402131 2.76667,-4.172526 3.33903,-4.44845 3.33903,-4.44845"
         id="path647"
         inkscape:path-effect="#path-effect651"
         inkscape:original-d="m 104.52652,111.31655 c 5.05573,-8.1148 10.11146,-16.229606 15.16719,-24.344409 0.45523,-0.276673 1.66289,-2.194009 1.04997,-0.506172"
         sodipodi:nodetypes="cccc" />
    </g>
    <path
       style="fill:none;stroke:#ff0000;stroke-width:0.001;stroke-linecap:butt;stroke-linejoin:miter;stroke-miterlimit:4;stroke-dasharray:none;stroke-opacity:1"
       d="M 76.946107,118.8216 73.833101,118.751"
       id="path1211" />
    <path
       style="fill:none;stroke:#ff0000;stroke-width:0.001;stroke-linecap:butt;stroke-linejoin:miter;stroke-miterlimit:4;stroke-dasharray:none;stroke-opacity:1"
       d="m 75.794693,39.705059 c -0.26544,-0.326711 -0.531117,-0.653713 -0.887568,-1.060355 -0.35645,-0.406641 -0.818457,-0.90896 -1.273336,-1.40353"
       id="path1326"
       inkscape:original-d="m 75.794693,39.705059 c -0.26541,-0.326736 -0.531092,-0.653734 -0.797035,-0.981012 -0.467304,-0.467294 -0.908974,-0.988318 -1.363869,-1.482873"
       inkscape:path-effect="#path-effect1328" />
    <path
       style="fill:none;stroke:#ff0000;stroke-width:0.001;stroke-linecap:butt;stroke-linejoin:miter;stroke-miterlimit:4;stroke-dasharray:none;stroke-opacity:1"
       d="m 73.649766,52.952873 1e-5,15.171242"
       id="path1562" />
    <path
       style="fill:none;stroke:#ff0000;stroke-width:0.001;stroke-linecap:butt;stroke-linejoin:miter;stroke-miterlimit:4;stroke-dasharray:none;stroke-opacity:1"
       d="m 70.757774,83.4597 1.91e-4,15.072697"
       id="path1922" />
    <g
       id="g11729"
       transform="matrix(10.048471,0,0,10.048471,94.734905,101.89444)"
       style="fill:none;stroke:#ff0000;stroke-width:0.00009952;stroke-miterlimit:4;stroke-dasharray:none;stroke-opacity:1">
      <g
         id="g12820"
         transform="matrix(0.99517628,0,0,0.99517628,-0.25720247,0.01708443)"
         style="fill:none;stroke:#ff0000;stroke-width:0.0001;stroke-miterlimit:4;stroke-dasharray:none;stroke-opacity:1">
        <path
           d="m -1.566843,-0.15 a 1,1 0 1 1 2,0 1,1 0 1 1 -2,0 z"
           transform="matrix(1,0,0,-1,1.566843,0.85)"
           fill="#000000"
           shaper:cutDepth="0.3cm"
           stroke-linecap="round"
           stroke-linejoin="round"
           id="path12808"
           style="fill:none;stroke:#ff0000;stroke-width:0.0001;stroke-miterlimit:4;stroke-dasharray:none;stroke-opacity:1" />
        <path
           d="M -0.711843,-0.4625 V -0.3 h -0.3175 V 0 h 0.3175 v 0.1625 h 0.29 V 0 h 0.3175 v -0.3 h -0.3175 v -0.1625 z"
           transform="matrix(1,0,0,-1,1.566843,0.85)"
           fill="#ffffff"
           stroke="#000000"
           stroke-width="0.001cm"
           stroke-linecap="round"
           stroke-linejoin="round"
           shaper:cutDepth="0.3cm"
           id="path12810"
           style="fill:none;stroke:#ff0000;stroke-width:0.0001;stroke-miterlimit:4;stroke-dasharray:none;stroke-opacity:1" />
      </g>
    </g>
    <path
       id="path1289"
       style="fill:none;fill-rule:evenodd;stroke:#ff0000;stroke-width:0.001;stroke-miterlimit:4;stroke-dasharray:none;stroke-opacity:1"
       d="m 91.673186,46.92713 a 5,5 0 0 0 -4.999694,4.9997 5,5 0 0 0 3.578593,4.79299 v -4.75889 h 2.900079 v 4.74132 a 5,5 0 0 0 3.521234,-4.77542 5,5 0 0 0 -5.000212,-4.9997 z" />
    <path
       id="path1289-7"
       style="fill:none;fill-rule:evenodd;stroke:#ff0000;stroke-width:0.001;stroke-miterlimit:4;stroke-dasharray:none;stroke-opacity:1"
       d="m 99.635233,61.62738 a 5,5 0 0 0 -4.99967,4.9997 5,5 0 0 0 3.578579,4.79299 v -4.75889 h 2.900058 v 4.74132 a 5,5 0 0 0 3.52124,-4.77542 5,5 0 0 0 -5.000207,-4.9997 z" />
    <path
       id="path1289-5"
       style="fill:none;fill-rule:evenodd;stroke:#ff0000;stroke-width:0.001;stroke-miterlimit:4;stroke-dasharray:none;stroke-opacity:1"
       d="m 110.98639,35.669711 a 5,5 0 0 0 -4.99969,4.9997 5,5 0 0 0 3.57859,4.79299 v -4.75889 h 2.90008 v 4.74132 a 5,5 0 0 0 3.52124,-4.77542 5,5 0 0 0 -5.00022,-4.9997 z" />
    <path
       id="path1289-4"
       style="fill:none;fill-rule:evenodd;stroke:#ff0000;stroke-width:0.001;stroke-miterlimit:4;stroke-dasharray:none;stroke-opacity:1"
       d="m 103.72247,47.926653 a 5,5 0 0 0 -4.999695,4.9997 5,5 0 0 0 3.578595,4.79299 v -4.75889 h 2.90008 v 4.74132 a 5,5 0 0 0 3.52123,-4.77542 5,5 0 0 0 -5.00021,-4.9997 z" />
    <path
       id="path1289-4-7"
       style="fill:none;fill-rule:evenodd;stroke:#ff0000;stroke-width:0.001;stroke-miterlimit:4;stroke-dasharray:none;stroke-opacity:1"
       d="m 98.408379,35.514722 a 5,5 0 0 0 -4.999694,4.9997 5,5 0 0 0 3.578594,4.79299 v -4.75889 h 2.90008 v 4.74132 a 5,5 0 0 0 3.521231,-4.77542 5,5 0 0 0 -5.000211,-4.9997 z" />
  </g>
</svg>
